#!OML:ASF X:\für Bonn\!DataBase\2005_08_10_Bjorn_Final\c3d\bjorn.ASF
:FULLY-SPECIFIED
:DEGREES
306
root -1.42957 16.558 3.33844 -548.318 30.817 -542.372
lowerback 1.82294 4.756 2.51222
upperback 9.3696 7.41676 -2.7895
thorax 9.61614 4.356 -3.78388
lowerneck -2.4054 2.23417 10.7164
upperneck 12.0907 3.41488 -6.0243
head 4.28544 2.01013 -3.44771
rclavicle -8.94531e-015 1.94809e-014
rhumerus 81.8967 15.8874 -70.4262
rradius 51.5397
rwrist 27.7043
rhand -23.4165 6.38559
rfingers 7.12502
rthumb 3.04085 -23.5725
lclavicle -8.94531e-015 1.94809e-014
lhumerus 51.2748 -16.9843 82.8629
lradius 78.5201
lwrist 51.4976
lhand -51.2146 -2.66839
lfingers 7.12502
lthumb -23.7545 25.8834
rfemur 368.456 13.685 -356.925
rtibia 52.064
rfoot -28.1842 5.91058
rtoes -48.161
lfemur -28.6192 0.121249 -20.8646
ltibia 72.0425
lfoot -29.0534 4.12488
ltoes -23.4495
307
root -1.42402 16.6117 3.30002 -548.021 30.859 -542.075
lowerback 1.67245 4.78435 2.6076
upperback 9.26262 7.4128 -2.69592
thorax 9.58221 4.34199 -3.72931
lowerneck -2.2458 2.18873 10.8589
upperneck 12.2075 3.3924 -6.11956
head 4.2956 2.01138 -3.50394
rclavicle -4.56211e-014 3.06128e-014
rhumerus 81.7773 15.9689 -70.2429
rradius 50.5553
rwrist 27.8056
rhand -23.5153 6.59485
rfingers 7.12502
rthumb 2.94549 -23.3646
lclavicle -4.56211e-014 3.06128e-014
lhumerus 51.1981 -16.8792 83.1411
lradius 77.9078
lwrist 51.5655
lhand -50.9908 -3.0422
lfingers 7.12502
lthumb -23.5398 25.5373
rfemur 368.363 13.8777 -356.56
rtibia 51.9309
rfoot -27.3808 5.84142
rtoes -48.2292
lfemur -28.3767 0.166453 -20.6625
ltibia 71.5328
lfoot -28.8567 4.39903
ltoes -23.9555
308
root -1.41831 16.6741 3.26303 -547.703 30.9114 -541.856
lowerback 1.46213 4.81819 2.63114
upperback 9.14652 7.4202 -2.63849
thorax 9.57029 4.32917 -3.66732
lowerneck -2.2057 2.17311 11.0048
upperneck 12.4043 3.39339 -6.15307
head 4.35173 2.02707 -3.53906
rclavicle -1.14699e-013 2.18663e-014
rhumerus 81.7418 16.0064 -70.1244
rradius 49.5213
rwrist 28.0467
rhand -23.8526 6.94381
rfingers 7.12502
rthumb 2.61969 -23.0199
lclavicle -1.14699e-013 2.18663e-014
lhumerus 51.1523 -16.7924 83.3647
lradius 77.3587
lwrist 51.6052
lhand -50.5889 -3.58097
lfingers 7.12502
lthumb -23.1542 25.0475
rfemur 368.245 14.0015 -356.311
rtibia 51.6791
rfoot -26.6105 5.60338
rtoes -48.7285
lfemur -28.1524 0.183198 -20.5315
ltibia 70.918
lfoot -28.5884 4.64674
ltoes -24.2792
309
root -1.41183 16.7431 3.23033 -547.405 30.9602 -541.765
lowerback 1.23509 4.8469 2.52122
upperback 9.00629 7.42549 -2.61588
thorax 9.52754 4.30505 -3.56945
lowerneck -2.10994 2.15126 11.1578
upperneck 12.5045 3.39037 -6.23841
head 4.36947 2.0362 -3.59231
rclavicle -1.70955e-014 7.95139e-016
rhumerus 81.7635 16.0613 -70.0284
rradius 48.441
rwrist 28.3252
rhand -24.3325 7.39453
rfingers 7.12502
rthumb 2.15627 -22.5743
lclavicle -1.70955e-014 7.95139e-016
lhumerus 51.0329 -16.6858 83.5646
lradius 76.9741
lwrist 51.6522
lhand -50.1488 -4.04078
lfingers 7.12502
lthumb -22.7319 24.6401
rfemur 368.1 14.0956 -356.219
rtibia 51.3276
rfoot -25.7911 5.49725
rtoes -49.08
lfemur -27.9471 0.162891 -20.5151
ltibia 70.2122
lfoot -28.2709 4.89788
ltoes -24.5829
310
root -1.40499 16.8176 3.19989 -547.163 31.0142 -541.741
lowerback 1.04609 4.89015 2.3662
upperback 8.86915 7.4593 -2.62105
thorax 9.46701 4.29499 -3.47727
lowerneck -2.09083 2.12072 11.3871
upperneck 12.6587 3.3712 -6.37869
head 4.41707 2.03819 -3.67567
rclavicle -5.24792e-014 4.77083e-014
rhumerus 81.7603 16.08 -69.9335
rradius 47.4331
rwrist 28.5358
rhand -24.8844 7.86923
rfingers 7.12502
rthumb 1.62326 -22.1043
lclavicle -5.24792e-014 4.77083e-014
lhumerus 50.932 -16.6572 83.764
lradius 76.6594
lwrist 51.6818
lhand -49.7726 -4.24892
lfingers 7.12502
lthumb -22.3708 24.4758
rfemur 367.987 14.1724 -356.198
rtibia 50.9278
rfoot -24.9948 5.36699
rtoes -49.4767
lfemur -27.6749 0.150499 -20.5627
ltibia 69.4386
lfoot -27.9107 5.18279
ltoes -24.9078
311
root -1.39724 16.8986 3.17161 -546.9 31.1058 -541.676
lowerback 0.867742 4.93642 2.23216
upperback 8.72778 7.49458 -2.61107
thorax 9.39628 4.28631 -3.38176
lowerneck -2.03337 2.08973 11.5937
upperneck 12.7326 3.35015 -6.5153
head 4.43308 2.03608 -3.75458
rclavicle -5.48646e-014 4.6118e-014
rhumerus 81.7612 16.1329 -69.9328
rradius 46.4606
rwrist 28.8522
rhand -25.3876 8.39965
rfingers 7.12502
rthumb 1.13719 -21.5771
lclavicle -5.48646e-014 4.6118e-014
lhumerus 50.8195 -16.6229 83.9143
lradius 76.3821
lwrist 51.8019
lhand -49.5245 -4.49254
lfingers 7.12502
lthumb -22.1327 24.2606
rfemur 367.897 14.2324 -356.158
rtibia 50.432
rfoot -24.1096 5.3627
rtoes -49.6257
lfemur -27.3674 0.129882 -20.55
ltibia 68.5882
lfoot -27.5271 5.34273
ltoes -24.8832
312
root -1.38921 16.9636 3.15286 -546.68 31.1979 -541.577
lowerback 0.771678 4.97594 2.13006
upperback 8.58808 7.52234 -2.59688
thorax 9.28222 4.27792 -3.30816
lowerneck -1.93892 2.05816 11.7908
upperneck 12.7762 3.3302 -6.63458
head 4.43332 2.03499 -3.82674
rclavicle 3.37934e-014 -5.96354e-014
rhumerus 81.7236 16.2122 -69.9891
rradius 45.5711
rwrist 29.1148
rhand -25.8278 8.93661
rfingers 7.12502
rthumb 0.712035 -21.0419
lclavicle 3.37934e-014 -5.96354e-014
lhumerus 50.6177 -16.6054 84.0496
lradius 76.2456
lwrist 51.9322
lhand -49.2543 -4.59434
lfingers 7.12502
lthumb -21.8732 24.1893
rfemur 367.838 14.2541 -356.108
rtibia 49.925
rfoot -23.1966 5.4899
rtoes -49.6273
lfemur -27.0589 0.109544 -20.4832
ltibia 67.7426
lfoot -27.0888 5.49843
ltoes -24.9383
313
root -1.38061 17.054 3.12802 -546.438 31.3161 -541.385
lowerback 0.710596 5.02317 2.11561
upperback 8.44413 7.55524 -2.56413
thorax 9.15308 4.27797 -3.26617
lowerneck -1.8068 2.02625 11.9092
upperneck 12.796 3.30528 -6.63874
head 4.41695 2.03404 -3.85006
rclavicle 3.50855e-014 -2.74323e-014
rhumerus 81.6385 16.2828 -70.0809
rradius 44.8177
rwrist 29.4051
rhand -26.1831 9.36167
rfingers 7.12502
rthumb 0.368891 -20.6178
lclavicle 3.50855e-014 -2.74323e-014
lhumerus 50.4172 -16.6095 84.1669
lradius 76.1413
lwrist 52.0389
lhand -49.0271 -4.75927
lfingers 7.12502
lthumb -21.6551 24.0497
rfemur 367.886 14.2568 -355.949
rtibia 49.2794
rfoot -22.2227 5.6133
rtoes -49.4805
lfemur -26.5775 0.0739644 -20.3309
ltibia 66.7562
lfoot -26.6546 5.64952
ltoes -24.9534
